<svg width="125" height="127" viewBox="0 0 125 127" fill="none" xmlns="http://www.w3.org/2000/svg"><path d="M48.839 25.433v17.133L34 51.134l-14.839-8.568V25.433L34 16.865z" stroke="#fff" stroke-width="1.5" stroke-linejoin="round"/><g filter="url(#a)"><path d="M48.464 25.65v16.7L34 50.7l-14.464-8.35v-16.7L34 17.298z" stroke="#fff" stroke-width="2.25" stroke-linejoin="round"/></g><g filter="url(#b)"><path d="m34 16 15.589 9v18L34 52l-15.588-9V25z" fill="#fff"/><path d="M48.464 25.65v16.7L34 50.7l-14.464-8.35v-16.7L34 17.298z" stroke="#fff" stroke-width="2.25" stroke-linejoin="round"/></g><g filter="url(#c)"><path d="m34 16 15.589 9v18L34 52l-15.588-9V25z" fill="#fff"/><path d="M48.464 25.65v16.7L34 50.7l-14.464-8.35v-16.7L34 17.298z" stroke="#fff" stroke-width="2.25" stroke-linejoin="round"/></g><defs><filter id="a" x="14.812" y="12.4" width="38.377" height="43.2" filterUnits="userSpaceOnUse" color-interpolation-filters="sRGB"><feFlood flood-opacity="0" result="BackgroundImageFix"/><feBlend in="SourceGraphic" in2="BackgroundImageFix" result="shape"/><feGaussianBlur stdDeviation="1.8" result="effect1_foregroundBlur_3034_2181"/></filter><filter id="b" x="-56.588" y="-59" width="181.177" height="186" filterUnits="userSpaceOnUse" color-interpolation-filters="sRGB"><feFlood flood-opacity="0" result="BackgroundImageFix"/><feBlend in="SourceGraphic" in2="BackgroundImageFix" result="shape"/><feGaussianBlur stdDeviation="37.5" result="effect1_foregroundBlur_3034_2181"/></filter><filter id="c" x="-19.088" y="-21.5" width="106.177" height="111" filterUnits="userSpaceOnUse" color-interpolation-filters="sRGB"><feFlood flood-opacity="0" result="BackgroundImageFix"/><feBlend in="SourceGraphic" in2="BackgroundImageFix" result="shape"/><feGaussianBlur stdDeviation="18.75" result="effect1_foregroundBlur_3034_2181"/></filter></defs></svg>