<svg width="50" height="50" viewBox="0 0 50 50" fill="none" xmlns="http://www.w3.org/2000/svg">
<rect width="50" height="50" rx="25" fill="#1D2244" fill-opacity="0.3"/>
<rect x="0.5" y="0.5" width="49" height="49" rx="24.5" stroke="white" stroke-opacity="0.2"/>
<path fill-rule="evenodd" clip-rule="evenodd" d="M32.7771 17.43C33.0243 17.326 33.2947 17.2901 33.5604 17.3261C33.8261 17.3621 34.0773 17.4686 34.2878 17.6347C34.4984 17.8007 34.6606 18.0201 34.7575 18.27C34.8545 18.52 34.8827 18.7914 34.8391 19.056L32.5711 32.813C32.3511 34.14 30.8951 34.901 29.6781 34.24C28.6601 33.687 27.1481 32.835 25.7881 31.946C25.1081 31.501 23.0251 30.076 23.2811 29.062C23.5011 28.195 27.0011 24.937 29.0011 23C29.7861 22.239 29.4281 21.8 28.5011 22.5C26.1991 24.238 22.5031 26.881 21.2811 27.625C20.2031 28.281 19.6411 28.393 18.9691 28.281C17.7431 28.077 16.6061 27.761 15.6781 27.376C14.4241 26.856 14.4851 25.132 15.6771 24.63L32.7771 17.43Z" fill="white"/>
</svg>
