<svg width="50" height="50" viewBox="0 0 50 50" fill="none" xmlns="http://www.w3.org/2000/svg">
<rect width="50" height="50" rx="25" fill="#1D2244" fill-opacity="0.3"/>
<rect x="0.5" y="0.5" width="49" height="49" rx="24.5" stroke="white" stroke-opacity="0.2"/>
<path fill-rule="evenodd" clip-rule="evenodd" d="M16.2625 32.0568C15.8702 31.9408 15.5123 31.7343 15.219 31.4549C14.9256 31.1754 14.7054 30.8312 14.5769 30.4512C13.8429 28.4874 13.6254 20.2869 15.0391 18.6681C15.5096 18.1414 16.1739 17.8172 16.8878 17.7658C20.6802 17.3677 32.3975 17.4208 33.7432 17.8985C34.1217 18.0183 34.4675 18.2203 34.7547 18.4891C35.0419 18.758 35.263 19.0868 35.4015 19.451C36.2035 21.4812 36.2307 28.8589 35.2928 30.8095C35.044 31.3173 34.6275 31.7285 34.1102 31.9772C32.6965 32.6672 18.1383 32.6539 16.2625 32.0568ZM22.2842 28.2087L29.0808 24.7587L22.2842 21.2821V28.2087Z" fill="white"/>
</svg>
